<?xml version="1.0" encoding="UTF-8"?>
<svg id="Layer_2" data-name="Layer 2" xmlns="http://www.w3.org/2000/svg" xmlns:xlink="http://www.w3.org/1999/xlink" viewBox="0 0 472.46 314.04">
  <defs>
    <style>
      .cls-1 {
        fill: #002540;
      }

      .cls-2 {
        fill: #00a8c1;
      }

      .cls-3 {
        fill: url(#linear-gradient);
      }
    </style>
    <linearGradient id="linear-gradient" x1="0" y1="157.02" x2="472.46" y2="157.02" gradientUnits="userSpaceOnUse">
      <stop offset="0" stop-color="#005693"/>
      <stop offset="1" stop-color="#00a2c1"/>
    </linearGradient>
  </defs>
  <g id="Layer_1-2" data-name="Layer 1">
    <g>
      <path class="cls-2" d="m324.35,303.85H123.76c-4.51,0-8.75-1.76-11.94-4.94l-20.61-20.61,2.48-2.48,20.61,20.61c2.53,2.53,5.88,3.92,9.46,3.92h200.59v3.51Z"/>
      <g>
        <path class="cls-2" d="m436.27,150.07l-2.48-2.48,21.33-21.33c1.45-1.46,2.26-3.39,2.26-5.45V26.8c0-3.48-2.83-6.32-6.32-6.32h-133.32c-2.06,0-3.99.8-5.45,2.26l-14.31,14.31-2.48-2.48,14.31-14.31c2.12-2.12,4.93-3.28,7.93-3.28h133.32c5.42,0,9.83,4.41,9.83,9.83v94.01c0,3-1.17,5.81-3.28,7.93l-21.33,21.33Z"/>
        <path class="cls-3" d="m443.83,218.02V47.02c0-8.82-7.15-15.97-15.97-15.97h-177.03c-4.03,0-7.9-1.6-10.76-4.46l-22.14-22.13c-2.85-2.85-6.72-4.46-10.76-4.46H15.21C6.81,0,0,6.81,0,15.21v90.42c0,4.03,1.6,7.9,4.46,10.76l20.05,20.05c2.85,2.85,4.46,6.72,4.46,10.76v120.6c0,8.82,7.15,15.97,15.97,15.97h241.41c4.03,0,7.9,1.6,10.76,4.46l21.37,21.37c2.85,2.85,6.72,4.46,10.76,4.46h128.03c8.4,0,15.21-6.81,15.21-15.21v-45.88c0-4.03-1.6-7.9-4.46-10.76l-24.17-24.17Zm-404.35,49.77s0-220.78,0-220.78c0-3,2.44-5.44,5.44-5.44,0,0,382.94,0,382.94,0,3,0,5.44,2.44,5.44,5.44,0,0,0,196.12,0,196.12,0,8.4-6.81,15.21-15.21,15.21,0,0-68.39,0-68.39,0-7.3-.35-12.09,5.81-16.73,10.43-2.85,2.85-6.72,4.46-10.76,4.46,0,0-277.29,0-277.29,0-3,0-5.44-2.44-5.44-5.44Z"/>
        <path class="cls-1" d="m457.14,242.07v51.31c0,1.9-1.54,3.45-3.45,3.45h-139.87l7.4,7.59c1.25,1.28,2.96,2,4.75,2h134.96c3.2,0,5.79-2.59,5.79-5.79v-46.14c0-2.25-.94-4.39-2.59-5.92l-7.01-6.5Z"/>
      </g>
      <circle class="cls-1" cx="47.71" cy="21.63" r="8.23" transform="translate(-1.32 40.07) rotate(-45)"/>
      <circle class="cls-1" cx="68.77" cy="21.63" r="8.23" transform="translate(4.85 54.97) rotate(-45)"/>
      <path class="cls-1" d="m98.06,21.63c0,4.54-3.68,8.23-8.23,8.23s-8.23-3.68-8.23-8.23,3.68-8.23,8.23-8.23,8.23,3.68,8.23,8.23Z"/>
    </g>
  </g>
</svg>